<svg width="304" height="135" viewBox="0 0 304 135" fill="none" xmlns="http://www.w3.org/2000/svg">
<rect width="304" height="135" rx="30" fill="#FFEF9D"/>
<path d="M88.8 72.9C89.1333 73.8333 89.3667 74.9 89.5 76.1C89.7 77.2333 89.8 78.4 89.8 79.6C89.8 80.8 89.7 82 89.5 83.2C89.3667 84.3333 89.1667 85.3333 88.9 86.2C87.8333 89.9333 85.7 93.0667 82.5 95.6C79.3 98.0667 75.6333 99.8667 71.5 101C67.4333 102.133 63.2 102.533 58.8 102.2C54.4667 101.867 50.6 100.767 47.2 98.9C45.0667 97.7 43.2333 96.2333 41.7 94.5C40.1667 92.7667 38.8667 90.8333 37.8 88.7C37.4 87.9667 37.1333 87.1333 37 86.2C36.9333 85.2 37.0333 84.2667 37.3 83.4C37.5667 82.4667 38 81.6667 38.6 81C39.2 80.2667 40.0333 79.7667 41.1 79.5C41.7667 79.3667 42.5 79.3 43.3 79.3C44.1667 79.3 45 79.4333 45.8 79.7C46.6 79.9 47.3333 80.2667 48 80.8C48.6667 81.2667 49.2 81.9333 49.6 82.8C50.3333 84.2 51.3667 85.5 52.7 86.7C54.1 87.8333 55.5667 88.7667 57.1 89.5C59.3 90.2333 61.5 90.5333 63.7 90.4C65.9667 90.2667 68 89.7667 69.8 88.9C71.6667 88.0333 73.1667 86.8667 74.3 85.4C75.4333 83.8667 76 82.1333 76 80.2C76 78.6 75.7667 77.3 75.3 76.3C74.8333 75.2333 74.1667 74.3667 73.3 73.7C72.5 72.9667 71.5 72.3667 70.3 71.9C69.1667 71.4333 67.9 71.0333 66.5 70.7C64.9 70.3667 63.2667 70.1333 61.6 70C60 69.8667 58.3667 69.7 56.7 69.5C55.0333 69.3 53.4 69.0333 51.8 68.7C50.2 68.3667 48.6333 67.8667 47.1 67.2C44.0333 65.9333 41.7 64 40.1 61.4C38.5 58.8 37.5333 56 37.2 53C36.9333 50 37.3 47.0333 38.3 44.1C39.3 41.1 40.9 38.5333 43.1 36.4C45.2333 34.4667 47.7667 33.1 50.7 32.3C53.7 31.4333 57 30.9333 60.6 30.8C62.6 30.7333 64.6 30.8 66.6 31C68.6667 31.2 70.6333 31.5333 72.5 32C74.4333 32.4667 76.2 33.0667 77.8 33.8C79.4667 34.5333 80.9 35.4 82.1 36.4C82.9667 37.0667 83.8333 37.9667 84.7 39.1C85.5667 40.1667 86.2333 41.3333 86.7 42.6C87.1667 43.8 87.3 44.9667 87.1 46.1C86.9667 47.2333 86.2667 48.2 85 49C83.9333 49.6667 82.9 49.9667 81.9 49.9C80.9667 49.7667 80.0667 49.4667 79.2 49C78.3333 48.4667 77.5 47.8667 76.7 47.2C75.9 46.5333 75.1667 45.9333 74.5 45.4C72.7 44.0667 70.4667 43.1667 67.8 42.7C65.1333 42.2333 62.6333 42.1333 60.3 42.4C58.8333 42.6 57.4667 42.9333 56.2 43.4C54.9333 43.8667 53.8333 44.5 52.9 45.3C52.0333 46.1 51.3333 47.1 50.8 48.3C50.3333 49.4333 50.1667 50.7333 50.3 52.2C50.3667 53.2667 50.6667 54.1667 51.2 54.9C51.8 55.6333 52.5 56.2333 53.3 56.7C54.1667 57.1667 55.1 57.5333 56.1 57.8C57.1 58.0667 58.1 58.2667 59.1 58.4C62.1 58.8 65.1 59.1 68.1 59.3C71.1 59.5 74.0333 60.1667 76.9 61.3C79.8333 62.4333 82.3333 63.9667 84.4 65.9C86.4667 67.8333 87.9333 70.1667 88.8 72.9ZM143.093 37.5C145.626 39.8333 147.493 42.6333 148.693 45.9C149.893 49.1 150.36 52.3 150.093 55.5C149.826 58.5667 148.86 61.4 147.193 64C145.526 66.5333 142.993 68.4667 139.593 69.8C136.926 70.9333 134.293 71.7333 131.693 72.2C129.093 72.6667 126.226 73.0333 123.093 73.3C121.693 73.4333 120.493 73.5333 119.493 73.6C118.56 73.6 117.46 73.6333 116.193 73.7C115.926 73.7 115.46 73.7 114.793 73.7C114.193 73.7 113.76 73.7333 113.493 73.8V94.5C113.293 95.7667 113.026 97.0667 112.693 98.4C112.426 99.7333 111.66 100.767 110.393 101.5C109.66 101.9 108.76 102.133 107.693 102.2C106.626 102.267 105.66 102.233 104.793 102.1C103.86 101.967 103.06 101.733 102.393 101.4C101.793 101 101.293 100.333 100.893 99.4C100.626 98.8 100.36 98.1333 100.093 97.4C99.893 96.6 99.793 95.6333 99.793 94.5V39.2C99.793 38.7333 99.8263 38.3 99.893 37.9C99.9596 37.5 100.026 37.1 100.093 36.7C100.226 36.3667 100.326 36 100.393 35.6C100.46 35.2 100.56 34.8333 100.693 34.5C100.826 34.1667 100.96 33.8667 101.093 33.6C101.293 33.3333 101.526 33.1 101.793 32.9C102.126 32.5667 102.626 32.2667 103.293 32C104.026 31.7333 105.093 31.6 106.493 31.6H106.693C108.76 31.4667 111.06 31.3667 113.593 31.3C116.126 31.1667 118.226 31.2 119.893 31.4C120.826 31.5333 121.693 31.6333 122.493 31.7C123.293 31.7 124.06 31.7333 124.793 31.8C125.593 31.8667 126.393 31.9333 127.193 32C127.993 32.0667 128.793 32.1667 129.593 32.3C130.26 32.4333 130.86 32.5333 131.393 32.6C131.993 32.6667 132.593 32.7667 133.193 32.9C133.726 33.0333 134.293 33.1667 134.893 33.3C135.56 33.4333 136.16 33.6667 136.693 34C138.093 34.4 139.26 34.9 140.193 35.5C141.126 36.1 142.093 36.7667 143.093 37.5ZM137.093 54C137.16 52.4 136.826 51 136.093 49.8C135.426 48.6 134.46 47.6 133.193 46.8C131.926 46 130.493 45.3667 128.893 44.9C127.293 44.4333 125.693 44.1 124.093 43.9C123.693 43.9 123.126 43.9 122.393 43.9C121.726 43.8333 120.993 43.8 120.193 43.8C119.393 43.7333 118.626 43.7 117.893 43.7C117.226 43.6333 116.693 43.6 116.293 43.6C115.96 43.5333 115.56 43.5 115.093 43.5C114.626 43.5 114.093 43.5 113.493 43.5C113.56 45.5667 113.593 47.5667 113.593 49.5C113.593 51.3667 113.593 53.4 113.593 55.6C113.526 56.8 113.493 58 113.493 59.2C113.493 60.4 113.493 61.5667 113.493 62.7L119.693 62.6C121.293 62.6 123.06 62.5 124.993 62.3C126.926 62.1 128.76 61.7 130.493 61.1C132.226 60.5 133.693 59.6333 134.893 58.5C136.16 57.3667 136.893 55.8667 137.093 54ZM171.989 43.2L171.789 58.9H175.789C178.522 58.8333 180.956 58.8 183.089 58.8C185.222 58.8 187.589 58.8333 190.189 58.9H190.689C191.489 58.9 192.256 58.9333 192.989 59C193.789 59 194.556 59 195.289 59C196.089 59.0667 196.856 59.2 197.589 59.4C198.322 59.5333 199.056 59.7 199.789 59.9C200.922 60.3 201.856 60.9 202.589 61.7C203.256 62.5667 203.589 63.5333 203.589 64.6C203.589 64.9333 203.589 65.3333 203.589 65.8C203.589 66.2 203.522 66.5667 203.389 66.9C203.256 67.6333 202.822 68.3 202.089 68.9C201.756 69.3667 201.122 69.7 200.189 69.9C199.322 70.1667 198.456 70.3333 197.589 70.4C196.656 70.6 195.722 70.7 194.789 70.7H190.089L171.589 70.8L171.389 90.4L191.289 90.6H195.989C196.522 90.6 197.022 90.6 197.489 90.6C197.956 90.6 198.389 90.6333 198.789 90.7C199.322 90.8333 199.789 90.9333 200.189 91C200.656 91 201.089 91.0667 201.489 91.2C202.289 91.4667 202.956 91.8333 203.489 92.3C204.156 92.9667 204.589 93.6667 204.789 94.4C204.856 94.7333 204.889 95.1 204.889 95.5C204.956 95.8333 204.956 96.2 204.889 96.6C204.889 97.6667 204.556 98.6333 203.889 99.5C203.089 100.433 202.156 101.033 201.089 101.3C199.689 101.9 198.156 102.2 196.489 102.2C195.756 102.267 194.989 102.3 194.189 102.3C193.389 102.3 192.622 102.333 191.889 102.4H191.289C186.089 102.533 180.689 102.533 175.089 102.4C173.756 102.4 172.689 102.367 171.889 102.3C171.089 102.3 170.356 102.3 169.689 102.3C169.089 102.3 168.456 102.3 167.789 102.3C167.122 102.3 166.256 102.3 165.189 102.3C163.656 102.433 162.389 102.167 161.389 101.5C160.656 101.033 160.089 100.4 159.689 99.6C159.489 99.4 159.389 99.2 159.389 99C159.322 98.8667 159.256 98.7667 159.189 98.7C159.122 98.6333 159.056 98.5333 158.989 98.4C158.856 98.0667 158.756 97.7333 158.689 97.4C158.622 97 158.589 96.6333 158.589 96.3C158.522 95.9667 158.456 95.6333 158.389 95.3C158.389 94.9667 158.356 94.6333 158.289 94.3V92.7C158.289 92.4333 158.289 92.1667 158.289 91.9C158.356 91.6333 158.389 91.3667 158.389 91.1V83.3L158.589 68.9V55.6C158.589 53.2 158.589 51.0667 158.589 49.2C158.656 47.3333 158.722 45.3 158.789 43.1V42.6C158.856 41.8667 158.889 41.2 158.889 40.6C158.956 39.9333 158.989 39.2667 158.989 38.6C159.056 37.2667 159.422 35.9667 160.089 34.7C160.356 34.1667 160.622 33.7 160.889 33.3C161.222 32.9 161.656 32.5667 162.189 32.3C163.189 31.7 164.222 31.4 165.289 31.4C165.822 31.4 166.222 31.4333 166.489 31.5V31.4C167.689 31.4 168.656 31.4 169.389 31.4C170.122 31.4 170.822 31.4 171.489 31.4C172.222 31.4 172.989 31.4 173.789 31.4C174.589 31.3333 175.689 31.3 177.089 31.3C179.756 31.2333 182.289 31.2 184.689 31.2C187.089 31.2 189.556 31.2333 192.089 31.3H192.489C193.222 31.3667 193.989 31.4 194.789 31.4C195.589 31.4 196.356 31.4333 197.089 31.5C197.822 31.5 198.556 31.6 199.289 31.8C200.022 31.9333 200.756 32.1333 201.489 32.4C202.622 32.7333 203.556 33.3 204.289 34.1C204.889 35.0333 205.189 35.9667 205.189 36.9C205.189 37.3 205.189 37.7 205.189 38.1C205.189 38.4333 205.122 38.7667 204.989 39.1C204.922 39.7667 204.522 40.4667 203.789 41.2C203.522 41.3333 203.222 41.5 202.889 41.7C202.622 41.9 202.289 42.0667 201.889 42.2C201.489 42.3333 201.056 42.4333 200.589 42.5C200.189 42.5 199.789 42.5333 199.389 42.6C198.856 42.7333 198.356 42.8 197.889 42.8C197.489 42.8 197.022 42.8 196.489 42.8H191.989L171.989 42.9V43.2ZM266.272 85.2C267.139 87.1333 267.172 89.0333 266.372 90.9C265.572 92.7 264.305 94.3667 262.572 95.9C260.839 97.4333 258.839 98.7667 256.572 99.9C254.372 101.033 252.272 101.833 250.272 102.3C248.072 102.767 245.739 102.967 243.272 102.9C240.872 102.9 238.439 102.6 235.972 102C233.572 101.467 231.205 100.667 228.872 99.6C226.605 98.4667 224.505 97.1 222.572 95.5C220.239 93.5667 218.405 91.2667 217.072 88.6C215.805 85.8667 214.872 82.9667 214.272 79.9C213.672 76.8333 213.339 73.7667 213.272 70.7C213.272 67.5667 213.372 64.6333 213.572 61.9C213.772 59.4333 214.272 56.8667 215.072 54.2C215.872 51.5333 216.972 48.9333 218.372 46.4C219.839 43.8 221.572 41.4 223.572 39.2C225.639 37 228.039 35.1333 230.772 33.6C232.839 32.4 235.139 31.6 237.672 31.2C240.272 30.7333 242.872 30.6333 245.472 30.9C248.139 31.1 250.639 31.6667 252.972 32.6C255.372 33.4667 257.405 34.6667 259.072 36.2C260.139 37.1333 261.239 38.4333 262.372 40.1C263.572 41.7667 264.439 43.4667 264.972 45.2C265.505 46.9333 265.505 48.5667 264.972 50.1C264.505 51.5667 263.172 52.5667 260.972 53.1C260.039 53.3667 259.205 53.4333 258.472 53.3C257.739 53.1 257.072 52.8 256.472 52.4C255.872 51.9333 255.305 51.4 254.772 50.8C254.239 50.2 253.739 49.6 253.272 49C251.672 47.0667 249.805 45.7667 247.672 45.1C245.539 44.3667 243.405 44.2 241.272 44.6C239.205 44.9333 237.239 45.8 235.372 47.2C233.572 48.5333 232.172 50.2667 231.172 52.4C230.105 54.6667 229.239 57.1667 228.572 59.9C227.972 62.5667 227.639 65.3 227.572 68.1C227.505 70.8333 227.739 73.5 228.272 76.1C228.872 78.7 229.872 81 231.272 83C232.339 84.6 233.639 85.9 235.172 86.9C236.772 87.9 238.472 88.6 240.272 89C242.072 89.4 243.872 89.4667 245.672 89.2C247.539 88.9333 249.339 88.3333 251.072 87.4C251.605 87.1333 252.172 86.7667 252.772 86.3C253.439 85.7667 254.105 85.2333 254.772 84.7C255.439 84.1667 256.105 83.6667 256.772 83.2C257.505 82.7333 258.272 82.4 259.072 82.2C260.272 81.8 261.572 81.8333 262.972 82.3C264.439 82.7667 265.539 83.7333 266.272 85.2Z" fill="#3D408A"/>
</svg>
